# xmcd
#
# Track frame offsets:
#   150
#   17281
#   33201
#   49598
#   67202
#   81367
#   97920
#   114930
#   131582
#   151001
#   163553
#   184350
#   201785
#   220460
#   238047
#   252600
#   271506
#   288080
#   304259
#   319761
#   336136
#
# Disc length: 4748 seconds
#
# Revision: 0
# Processed by: cddbd v1.5.1PL0 Copyright (c) Steve Scherf et al.
# Submitted via: Media_Universe 3.0
#
DISCID=20128a15
DTITLE=Ty Herndon - Big Hopes and Livin In A Minute
DYEAR=1900
DGENRE=Country
TTITLE0=Big Hopes
TTITLE1=It Must Be Love
TTITLE2=A Man Holdin On To A Woman Lettin Go
TTITLE3=Big Time Dreamer
TTITLE4=Thinkin With My Heart Again
TTITLE5=Somewhere A Lover
TTITLE6=Hands Of A Working Man
TTITLE7=How Much Can One Man Love You
TTITLE8=The Only Way I Know
TTITLE9=No Brakes
TTITLE10=Tears In Gods Eyes
TTITLE11=Livin In A Minute
TTITLE12=Returning The Faith
TTITLE13=She Wants To Be Wanted Again
TTITLE14=Before There Was You
TTITLE15=Dont Tell Mama
TTITLE16=Loved Too Much
TTITLE17=Her Heart Is Only Human
TTITLE18=Love Dont Work That Way
TTITLE19=I Have To Surrender
TTITLE20=I Know How The River Feels
EXTD=
EXTT0=
EXTT1=
EXTT2=
EXTT3=
EXTT4=
EXTT5=
EXTT6=
EXTT7=
EXTT8=
EXTT9=
EXTT10=
EXTT11=
EXTT12=
EXTT13=
EXTT14=
EXTT15=
EXTT16=
EXTT17=
EXTT18=
EXTT19=
EXTT20=
PLAYORDER=
